# xmcd
#
# Track frame offsets:
#	150
#	11372
#	20672
#	39402
#	52567
#	67055
#	78595
#	92977
#	105382
#	118895
#	135082
#	148985
#	161065
#	173685
#	186055
#	201125
#	213932
#	226270
#	241130
#	257015
#
# Disc length: 3637 seconds
#
# Revision: 1
# Processed by: cddbd v1.5.2PL0 Copyright (c) Steve Scherf et al.
# Submitted via: audiograbber 1.83.01
#
DISCID=070e3314
DTITLE=Various Artist - Bourbon Country Vol 2
DYEAR=2000
DGENRE=Country
TTITLE0=Little Ole Wine Drinker Me
TTITLE1=Don't Come Home a Drinkin' (With Lovin' On Your Mind)
TTITLE2=Sunday Morning Coming Down
TTITLE3=Tonight the Heartache's on Me
TTITLE4=I Can't Even Drink It Away
TTITLE5=Wine, Women and Song
TTITLE6=If Drinkin' Don't Kill Me (Her Memory Will)
TTITLE7=Barstool Mountain
TTITLE8=Don't the Girls All Get Prettier at Closing Time
TTITLE9=She's Actin' Single (I'm Drinking Doubles)
TTITLE10=The Spirits of St. Louis
TTITLE11=Must've Been Drunk
TTITLE12=Red Wine and Blue Memories
TTITLE13=City Lights
TTITLE14=It Took a Lot of Drinking (To Get That Woman Over Me)
TTITLE15=Bad for Good
TTITLE16=From the Bottle to the Bottom
TTITLE17=Memory Remover
TTITLE18=Drink My Wife Away
TTITLE19=Honky Tonk Heroes (Like Me)
EXTD=
EXTT0=
EXTT1=
EXTT2=
EXTT3=
EXTT4=
EXTT5=
EXTT6=
EXTT7=
EXTT8=
EXTT9=
EXTT10=
EXTT11=
EXTT12=
EXTT13=
EXTT14=
EXTT15=
EXTT16=
EXTT17=
EXTT18=
EXTT19=
PLAYORDER=
